<svg xmlns="http://www.w3.org/2000/svg" xmlns:xlink="http://www.w3.org/1999/xlink" width="500" zoomAndPan="magnify" viewBox="0 0 375 374.999991" height="500" preserveAspectRatio="xMidYMid meet" version="1.0"><defs><g/><clipPath id="7bd8a9af95"><path d="M 78.402344 80.855469 L 296.652344 80.855469 L 296.652344 293.855469 L 78.402344 293.855469 Z M 78.402344 80.855469 " clip-rule="nonzero"/></clipPath><clipPath id="79209c8640"><path d="M 87.402344 80.855469 L 287.589844 80.855469 C 289.980469 80.855469 292.269531 81.804688 293.957031 83.492188 C 295.644531 85.179688 296.589844 87.46875 296.589844 89.855469 L 296.589844 285.136719 C 296.589844 287.523438 295.644531 289.8125 293.957031 291.5 C 292.269531 293.1875 289.980469 294.136719 287.589844 294.136719 L 87.402344 294.136719 C 82.429688 294.136719 78.402344 290.105469 78.402344 285.136719 L 78.402344 89.855469 C 78.402344 84.882812 82.429688 80.855469 87.402344 80.855469 Z M 87.402344 80.855469 " clip-rule="nonzero"/></clipPath><clipPath id="3f8a72a0d5"><path d="M 240.347656 105.960938 L 352.847656 105.960938 L 352.847656 267.992188 L 240.347656 267.992188 Z M 240.347656 105.960938 " clip-rule="nonzero"/></clipPath></defs><g clip-path="url(#7bd8a9af95)"><g clip-path="url(#79209c8640)"><path stroke-linecap="butt" transform="matrix(0.75, 0, 0, 0.75, 78.400934, 80.855231)" fill="none" stroke-linejoin="miter" d="M 12.001882 0.000316346 L 278.918583 0.000316346 C 282.106083 0.000316346 285.158167 1.265942 287.408167 3.515942 C 289.658168 5.765942 290.918584 8.818026 290.918584 12.000318 L 290.918584 272.375352 C 290.918584 275.557644 289.658168 278.609727 287.408167 280.859728 C 285.158167 283.109728 282.106083 284.375353 278.918583 284.375353 L 12.001882 284.375353 C 5.371672 284.375353 0.00188 279.000353 0.00188 272.375352 L 0.00188 12.000318 C 0.00188 5.370109 5.371672 0.000316346 12.001882 0.000316346 Z M 12.001882 0.000316346 " stroke="#3b82f6" stroke-width="8" stroke-opacity="1" stroke-miterlimit="4"/></g></g><g clip-path="url(#3f8a72a0d5)"><path fill="#ffffff" d="M 240.347656 105.960938 L 352.847656 105.960938 L 352.847656 268.117188 L 240.347656 268.117188 Z M 240.347656 105.960938 " fill-opacity="1" fill-rule="nonzero"/></g><g fill="#b0b0b0" fill-opacity="1"><g transform="translate(101.936908, 200.991698)"><g><path d="M 49.984375 -53.578125 C 50.523438 -53.671875 51.019531 -53.59375 51.46875 -53.34375 C 51.914062 -53.09375 52.191406 -52.648438 52.296875 -52.015625 C 52.328125 -51.804688 52.332031 -51.523438 52.3125 -51.171875 L 44.875 -8.484375 C 44.800781 -8.078125 44.613281 -7.738281 44.3125 -7.46875 C 44.007812 -7.207031 43.691406 -7.050781 43.359375 -7 C 42.941406 -6.9375 42.546875 -6.972656 42.171875 -7.109375 C 41.796875 -7.242188 41.5 -7.503906 41.28125 -7.890625 L 25.609375 -33.765625 L 26.125 -33.71875 L 19.40625 -4.359375 C 19.300781 -3.921875 19.082031 -3.578125 18.75 -3.328125 C 18.425781 -3.078125 18.070312 -2.921875 17.6875 -2.859375 C 17.351562 -2.804688 17.007812 -2.859375 16.65625 -3.015625 C 16.3125 -3.171875 16.050781 -3.429688 15.875 -3.796875 L -4.640625 -41.984375 C -4.828125 -42.304688 -4.929688 -42.550781 -4.953125 -42.71875 C -5.054688 -43.351562 -4.898438 -43.875 -4.484375 -44.28125 C -4.078125 -44.6875 -3.640625 -44.925781 -3.171875 -45 C -2.753906 -45.070312 -2.359375 -45.03125 -1.984375 -44.875 C -1.617188 -44.71875 -1.34375 -44.457031 -1.15625 -44.09375 L 17.53125 -9.109375 L 16.828125 -8.9375 L 23.40625 -38.140625 C 23.476562 -38.546875 23.648438 -38.890625 23.921875 -39.171875 C 24.203125 -39.453125 24.5625 -39.601562 25 -39.625 C 25.40625 -39.738281 25.78125 -39.703125 26.125 -39.515625 C 26.476562 -39.335938 26.773438 -39.070312 27.015625 -38.71875 L 42.28125 -13.1875 L 41.640625 -12.8125 L 48.265625 -52.078125 C 48.328125 -52.484375 48.507812 -52.816406 48.8125 -53.078125 C 49.125 -53.335938 49.515625 -53.503906 49.984375 -53.578125 Z M 49.984375 -53.578125 "/></g></g></g><g fill="#b0b0b0" fill-opacity="1"><g transform="translate(162.989027, 191.133938)"><g><path d="M 19.703125 -2.53125 C 16.460938 -2.007812 13.484375 -2.238281 10.765625 -3.21875 C 8.046875 -4.207031 5.789062 -5.832031 4 -8.09375 C 2.207031 -10.363281 1.046875 -13.164062 0.515625 -16.5 C -0.0664062 -20.070312 0.140625 -23.234375 1.140625 -25.984375 C 2.148438 -28.742188 3.671875 -30.992188 5.703125 -32.734375 C 7.734375 -34.472656 10.007812 -35.546875 12.53125 -35.953125 C 14.394531 -36.253906 16.253906 -36.21875 18.109375 -35.84375 C 19.972656 -35.46875 21.691406 -34.742188 23.265625 -33.671875 C 24.835938 -32.609375 26.179688 -31.21875 27.296875 -29.5 C 28.421875 -27.78125 29.222656 -25.707031 29.703125 -23.28125 C 29.742188 -22.757812 29.601562 -22.289062 29.28125 -21.875 C 28.957031 -21.46875 28.546875 -21.222656 28.046875 -21.140625 L 2.703125 -17.046875 L 1.390625 -20.328125 L 26.296875 -24.34375 L 25.578125 -23.453125 L 25.375 -24.71875 C 24.894531 -26.664062 23.992188 -28.242188 22.671875 -29.453125 C 21.359375 -30.671875 19.859375 -31.515625 18.171875 -31.984375 C 16.492188 -32.453125 14.8125 -32.550781 13.125 -32.28125 C 11.875 -32.070312 10.625 -31.609375 9.375 -30.890625 C 8.125 -30.171875 7.046875 -29.1875 6.140625 -27.9375 C 5.242188 -26.695312 4.59375 -25.1875 4.1875 -23.40625 C 3.78125 -21.632812 3.757812 -19.613281 4.125 -17.34375 C 4.53125 -14.851562 5.398438 -12.675781 6.734375 -10.8125 C 8.078125 -8.957031 9.800781 -7.59375 11.90625 -6.71875 C 14.019531 -5.851562 16.40625 -5.632812 19.0625 -6.0625 C 20.53125 -6.300781 21.820312 -6.722656 22.9375 -7.328125 C 24.050781 -7.941406 24.992188 -8.671875 25.765625 -9.515625 C 26.535156 -10.359375 27.15625 -11.203125 27.625 -12.046875 C 28.03125 -12.492188 28.460938 -12.753906 28.921875 -12.828125 C 29.335938 -12.898438 29.734375 -12.796875 30.109375 -12.515625 C 30.484375 -12.234375 30.707031 -11.882812 30.78125 -11.46875 C 30.851562 -10.957031 30.707031 -10.476562 30.34375 -10.03125 C 29.332031 -8.300781 27.90625 -6.71875 26.0625 -5.28125 C 24.226562 -3.84375 22.109375 -2.925781 19.703125 -2.53125 Z M 19.703125 -2.53125 "/></g></g></g><g fill="#b0b0b0" fill-opacity="1"><g transform="translate(198.697563, 185.36827)"><g><path d="M 15 -36.34375 C 17.875 -36.8125 20.53125 -36.503906 22.96875 -35.421875 C 25.414062 -34.335938 27.492188 -32.648438 29.203125 -30.359375 C 30.921875 -28.066406 32.046875 -25.273438 32.578125 -21.984375 C 33.085938 -18.785156 32.894531 -15.796875 32 -13.015625 C 31.113281 -10.234375 29.675781 -7.925781 27.6875 -6.09375 C 25.695312 -4.257812 23.304688 -3.117188 20.515625 -2.671875 C 19.046875 -2.429688 17.609375 -2.429688 16.203125 -2.671875 C 14.796875 -2.921875 13.484375 -3.347656 12.265625 -3.953125 C 11.046875 -4.554688 9.925781 -5.316406 8.90625 -6.234375 C 7.894531 -7.160156 7.039062 -8.1875 6.34375 -9.3125 L 7.34375 -10.34375 L 8.5 -3.203125 C 8.582031 -2.640625 8.472656 -2.148438 8.171875 -1.734375 C 7.878906 -1.328125 7.457031 -1.078125 6.90625 -0.984375 C 6.351562 -0.898438 5.867188 -1.003906 5.453125 -1.296875 C 5.046875 -1.597656 4.800781 -2.03125 4.71875 -2.59375 L -2.234375 -45.625 C -2.316406 -46.164062 -2.222656 -46.640625 -1.953125 -47.046875 C -1.679688 -47.460938 -1.25 -47.71875 -0.65625 -47.8125 C -0.101562 -47.90625 0.378906 -47.800781 0.796875 -47.5 C 1.210938 -47.195312 1.460938 -46.773438 1.546875 -46.234375 L 4.96875 -25.046875 L 4 -25.421875 C 4.207031 -26.785156 4.632812 -28.070312 5.28125 -29.28125 C 5.9375 -30.5 6.742188 -31.597656 7.703125 -32.578125 C 8.671875 -33.554688 9.769531 -34.367188 11 -35.015625 C 12.238281 -35.671875 13.570312 -36.113281 15 -36.34375 Z M 15.265625 -32.75 C 12.992188 -32.382812 11.085938 -31.488281 9.546875 -30.0625 C 8.003906 -28.644531 6.894531 -26.867188 6.21875 -24.734375 C 5.550781 -22.597656 5.425781 -20.242188 5.84375 -17.671875 C 6.25 -15.148438 7.113281 -12.945312 8.4375 -11.0625 C 9.757812 -9.175781 11.375 -7.789062 13.28125 -6.90625 C 15.195312 -6.03125 17.289062 -5.773438 19.5625 -6.140625 C 21.800781 -6.503906 23.675781 -7.414062 25.1875 -8.875 C 26.695312 -10.332031 27.789062 -12.160156 28.46875 -14.359375 C 29.15625 -16.566406 29.300781 -18.910156 28.90625 -21.390625 C 28.488281 -23.960938 27.613281 -26.15625 26.28125 -27.96875 C 24.945312 -29.789062 23.335938 -31.132812 21.453125 -32 C 19.566406 -32.863281 17.503906 -33.113281 15.265625 -32.75 Z M 15.265625 -32.75 "/></g></g></g><g fill="#b0b0b0" fill-opacity="1"><g transform="translate(236.997334, 179.18421)"><g><path d="M 16.8125 -48.109375 C 19.925781 -48.609375 22.75 -48.453125 25.28125 -47.640625 C 27.8125 -46.835938 30.003906 -45.515625 31.859375 -43.671875 C 33.710938 -41.835938 35.21875 -39.65625 36.375 -37.125 C 37.539062 -34.59375 38.359375 -31.875 38.828125 -28.96875 C 39.484375 -24.925781 39.414062 -21.117188 38.625 -17.546875 C 37.84375 -13.984375 36.253906 -10.984375 33.859375 -8.546875 C 31.460938 -6.109375 28.160156 -4.550781 23.953125 -3.875 L 7.84375 -1.265625 C 7.332031 -1.179688 6.851562 -1.296875 6.40625 -1.609375 C 5.96875 -1.929688 5.707031 -2.34375 5.625 -2.84375 L -0.90625 -43.296875 C -0.976562 -43.796875 -0.851562 -44.265625 -0.53125 -44.703125 C -0.21875 -45.148438 0.191406 -45.414062 0.703125 -45.5 Z M 22.71875 -7.5 C 26.289062 -8.070312 29.039062 -9.351562 30.96875 -11.34375 C 32.90625 -13.34375 34.160156 -15.828125 34.734375 -18.796875 C 35.316406 -21.765625 35.332031 -24.9375 34.78125 -28.3125 C 34.382812 -30.757812 33.722656 -33.039062 32.796875 -35.15625 C 31.878906 -37.28125 30.679688 -39.097656 29.203125 -40.609375 C 27.734375 -42.128906 25.957031 -43.222656 23.875 -43.890625 C 21.789062 -44.566406 19.425781 -44.691406 16.78125 -44.265625 L 2.9375 -42.03125 L 3.296875 -42.671875 L 9.421875 -4.6875 L 8.9375 -5.28125 Z M 22.71875 -7.5 "/></g></g></g><g fill="#b0b0b0" fill-opacity="1"><g transform="translate(282.438819, 171.847016)"><g><path d="M 19.703125 -2.53125 C 16.460938 -2.007812 13.484375 -2.238281 10.765625 -3.21875 C 8.046875 -4.207031 5.789062 -5.832031 4 -8.09375 C 2.207031 -10.363281 1.046875 -13.164062 0.515625 -16.5 C -0.0664062 -20.070312 0.140625 -23.234375 1.140625 -25.984375 C 2.148438 -28.742188 3.671875 -30.992188 5.703125 -32.734375 C 7.734375 -34.472656 10.007812 -35.546875 12.53125 -35.953125 C 14.394531 -36.253906 16.253906 -36.21875 18.109375 -35.84375 C 19.972656 -35.46875 21.691406 -34.742188 23.265625 -33.671875 C 24.835938 -32.609375 26.179688 -31.21875 27.296875 -29.5 C 28.421875 -27.78125 29.222656 -25.707031 29.703125 -23.28125 C 29.742188 -22.757812 29.601562 -22.289062 29.28125 -21.875 C 28.957031 -21.46875 28.546875 -21.222656 28.046875 -21.140625 L 2.703125 -17.046875 L 1.390625 -20.328125 L 26.296875 -24.34375 L 25.578125 -23.453125 L 25.375 -24.71875 C 24.894531 -26.664062 23.992188 -28.242188 22.671875 -29.453125 C 21.359375 -30.671875 19.859375 -31.515625 18.171875 -31.984375 C 16.492188 -32.453125 14.8125 -32.550781 13.125 -32.28125 C 11.875 -32.070312 10.625 -31.609375 9.375 -30.890625 C 8.125 -30.171875 7.046875 -29.1875 6.140625 -27.9375 C 5.242188 -26.695312 4.59375 -25.1875 4.1875 -23.40625 C 3.78125 -21.632812 3.757812 -19.613281 4.125 -17.34375 C 4.53125 -14.851562 5.398438 -12.675781 6.734375 -10.8125 C 8.078125 -8.957031 9.800781 -7.59375 11.90625 -6.71875 C 14.019531 -5.851562 16.40625 -5.632812 19.0625 -6.0625 C 20.53125 -6.300781 21.820312 -6.722656 22.9375 -7.328125 C 24.050781 -7.941406 24.992188 -8.671875 25.765625 -9.515625 C 26.535156 -10.359375 27.15625 -11.203125 27.625 -12.046875 C 28.03125 -12.492188 28.460938 -12.753906 28.921875 -12.828125 C 29.335938 -12.898438 29.734375 -12.796875 30.109375 -12.515625 C 30.484375 -12.234375 30.707031 -11.882812 30.78125 -11.46875 C 30.851562 -10.957031 30.707031 -10.476562 30.34375 -10.03125 C 29.332031 -8.300781 27.90625 -6.71875 26.0625 -5.28125 C 24.226562 -3.84375 22.109375 -2.925781 19.703125 -2.53125 Z M 19.703125 -2.53125 "/></g></g></g><g fill="#b0b0b0" fill-opacity="1"><g transform="translate(318.147345, 166.08135)"><g><path d="M -1.109375 -33.6875 C -0.765625 -33.738281 -0.40625 -33.679688 -0.03125 -33.515625 C 0.34375 -33.359375 0.644531 -33.085938 0.875 -32.703125 L 16.1875 -8.171875 L 15.453125 -7.5625 L 22.421875 -36.1875 C 22.628906 -37.082031 23.179688 -37.582031 24.078125 -37.6875 C 24.492188 -37.75 24.910156 -37.671875 25.328125 -37.453125 C 25.753906 -37.234375 26.007812 -36.875 26.09375 -36.375 C 26.132812 -36.125 26.132812 -35.921875 26.09375 -35.765625 C 26.0625 -35.609375 26.03125 -35.4375 26 -35.25 L 18.328125 -4.1875 C 18.109375 -3.375 17.601562 -2.882812 16.8125 -2.71875 C 16.445312 -2.613281 16.0625 -2.644531 15.65625 -2.8125 C 15.25 -2.988281 14.941406 -3.253906 14.734375 -3.609375 L -2.421875 -30.671875 C -2.472656 -30.753906 -2.535156 -30.867188 -2.609375 -31.015625 C -2.679688 -31.171875 -2.734375 -31.335938 -2.765625 -31.515625 C -2.835938 -31.984375 -2.734375 -32.4375 -2.453125 -32.875 C -2.179688 -33.3125 -1.734375 -33.582031 -1.109375 -33.6875 Z M -1.109375 -33.6875 "/></g></g></g><g fill="#b0b0b0" fill-opacity="1"><g transform="translate(166.299003, 250.616869)"><g><path d="M 8.078125 -1.3125 C 7.453125 -1.207031 6.90625 -1.3125 6.4375 -1.625 C 5.976562 -1.9375 5.707031 -2.34375 5.625 -2.84375 L -0.90625 -43.296875 C -0.976562 -43.796875 -0.851562 -44.265625 -0.53125 -44.703125 C -0.21875 -45.148438 0.191406 -45.414062 0.703125 -45.5 L 17.75 -48.25 C 20.15625 -48.644531 22.390625 -48.476562 24.453125 -47.75 C 26.515625 -47.019531 28.226562 -45.835938 29.59375 -44.203125 C 30.957031 -42.566406 31.820312 -40.613281 32.1875 -38.34375 C 32.488281 -36.488281 32.425781 -34.722656 32 -33.046875 C 31.582031 -31.378906 30.851562 -29.910156 29.8125 -28.640625 C 28.769531 -27.367188 27.53125 -26.359375 26.09375 -25.609375 L 23.75 -25.9375 C 25.320312 -26.070312 26.851562 -25.8125 28.34375 -25.15625 C 29.84375 -24.507812 31.117188 -23.503906 32.171875 -22.140625 C 33.234375 -20.785156 33.957031 -19.054688 34.34375 -16.953125 C 34.6875 -15.148438 35.015625 -13.753906 35.328125 -12.765625 C 35.640625 -11.785156 35.984375 -11.066406 36.359375 -10.609375 C 36.734375 -10.148438 37.175781 -9.804688 37.6875 -9.578125 C 38.15625 -9.398438 38.492188 -9.09375 38.703125 -8.65625 C 38.921875 -8.21875 38.941406 -7.765625 38.765625 -7.296875 C 38.648438 -6.941406 38.445312 -6.660156 38.15625 -6.453125 C 37.863281 -6.253906 37.546875 -6.125 37.203125 -6.0625 C 36.867188 -6.007812 36.523438 -6.039062 36.171875 -6.15625 C 35.523438 -6.394531 34.832031 -6.828125 34.09375 -7.453125 C 33.363281 -8.078125 32.6875 -9.050781 32.0625 -10.375 C 31.445312 -11.695312 30.941406 -13.601562 30.546875 -16.09375 C 30.273438 -17.726562 29.789062 -19.023438 29.09375 -19.984375 C 28.40625 -20.953125 27.601562 -21.65625 26.6875 -22.09375 C 25.769531 -22.539062 24.796875 -22.796875 23.765625 -22.859375 C 22.742188 -22.929688 21.789062 -22.898438 20.90625 -22.765625 L 6.171875 -20.375 L 6.734375 -21.375 L 9.609375 -3.484375 C 9.691406 -2.984375 9.597656 -2.515625 9.328125 -2.078125 C 9.054688 -1.648438 8.640625 -1.394531 8.078125 -1.3125 Z M 5.609375 -23.84375 L 21.484375 -26.40625 C 22.890625 -26.769531 24.15625 -27.460938 25.28125 -28.484375 C 26.414062 -29.515625 27.253906 -30.8125 27.796875 -32.375 C 28.347656 -33.9375 28.472656 -35.660156 28.171875 -37.546875 C 27.773438 -39.953125 26.640625 -41.8125 24.765625 -43.125 C 22.890625 -44.445312 20.648438 -44.894531 18.046875 -44.46875 L 2.9375 -42.03125 L 3.234375 -43 L 6.453125 -23.078125 Z M 5.609375 -23.84375 "/></g></g></g><g fill="#b0b0b0" fill-opacity="1"><g transform="translate(208.643634, 243.779707)"><g><path d="M 32.46875 -21.84375 C 32.988281 -18.632812 32.753906 -15.644531 31.765625 -12.875 C 30.773438 -10.101562 29.195312 -7.796875 27.03125 -5.953125 C 24.875 -4.117188 22.257812 -2.953125 19.1875 -2.453125 C 16.195312 -1.972656 13.367188 -2.265625 10.703125 -3.328125 C 8.046875 -4.390625 5.804688 -6.078125 3.984375 -8.390625 C 2.171875 -10.710938 1.003906 -13.476562 0.484375 -16.6875 C -0.0351562 -19.925781 0.203125 -22.921875 1.203125 -25.671875 C 2.203125 -28.429688 3.789062 -30.742188 5.96875 -32.609375 C 8.15625 -34.484375 10.742188 -35.660156 13.734375 -36.140625 C 16.804688 -36.640625 19.660156 -36.34375 22.296875 -35.25 C 24.941406 -34.15625 27.164062 -32.457031 28.96875 -30.15625 C 30.78125 -27.851562 31.945312 -25.082031 32.46875 -21.84375 Z M 28.671875 -21.234375 C 28.253906 -23.796875 27.359375 -25.992188 25.984375 -27.828125 C 24.609375 -29.660156 22.910156 -31.007812 20.890625 -31.875 C 18.867188 -32.738281 16.675781 -32.976562 14.3125 -32.59375 C 12.039062 -32.226562 10.070312 -31.316406 8.40625 -29.859375 C 6.75 -28.398438 5.539062 -26.582031 4.78125 -24.40625 C 4.03125 -22.226562 3.863281 -19.859375 4.28125 -17.296875 C 4.695312 -14.722656 5.601562 -12.535156 7 -10.734375 C 8.394531 -8.929688 10.109375 -7.597656 12.140625 -6.734375 C 14.179688 -5.867188 16.335938 -5.617188 18.609375 -5.984375 C 20.972656 -6.367188 22.976562 -7.289062 24.625 -8.75 C 26.269531 -10.207031 27.457031 -12.007812 28.1875 -14.15625 C 28.925781 -16.300781 29.085938 -18.660156 28.671875 -21.234375 Z M 28.671875 -21.234375 "/></g></g></g><g fill="#b0b0b0" fill-opacity="1"><g transform="translate(246.817005, 237.616056)"><g><path d="M 2.328125 -5.640625 C 1.910156 -6.078125 1.671875 -6.539062 1.609375 -7.03125 C 1.554688 -7.519531 1.757812 -7.957031 2.21875 -8.34375 C 2.507812 -8.6875 2.878906 -8.867188 3.328125 -8.890625 C 3.773438 -8.921875 4.21875 -8.785156 4.65625 -8.484375 C 6.039062 -7.179688 7.613281 -6.207031 9.375 -5.5625 C 11.144531 -4.925781 13.144531 -4.785156 15.375 -5.140625 C 16.550781 -5.335938 17.6875 -5.726562 18.78125 -6.3125 C 19.882812 -6.894531 20.75 -7.660156 21.375 -8.609375 C 22 -9.554688 22.210938 -10.660156 22.015625 -11.921875 C 21.796875 -13.234375 21.242188 -14.222656 20.359375 -14.890625 C 19.472656 -15.566406 18.390625 -16.035156 17.109375 -16.296875 C 15.835938 -16.566406 14.5 -16.765625 13.09375 -16.890625 C 11.59375 -17.046875 10.128906 -17.253906 8.703125 -17.515625 C 7.273438 -17.773438 5.984375 -18.191406 4.828125 -18.765625 C 3.679688 -19.347656 2.707031 -20.113281 1.90625 -21.0625 C 1.101562 -22.007812 0.578125 -23.242188 0.328125 -24.765625 C 0.046875 -26.535156 0.28125 -28.171875 1.03125 -29.671875 C 1.789062 -31.171875 2.941406 -32.4375 4.484375 -33.46875 C 6.023438 -34.5 7.84375 -35.1875 9.9375 -35.53125 C 11 -35.695312 12.164062 -35.738281 13.4375 -35.65625 C 14.707031 -35.570312 15.976562 -35.3125 17.25 -34.875 C 18.53125 -34.445312 19.726562 -33.753906 20.84375 -32.796875 C 21.269531 -32.484375 21.519531 -32.082031 21.59375 -31.59375 C 21.675781 -31.113281 21.539062 -30.648438 21.1875 -30.203125 C 20.882812 -29.890625 20.507812 -29.695312 20.0625 -29.625 C 19.625 -29.5625 19.238281 -29.671875 18.90625 -29.953125 C 17.695312 -30.929688 16.351562 -31.601562 14.875 -31.96875 C 13.394531 -32.332031 11.851562 -32.382812 10.25 -32.125 C 9.019531 -31.925781 7.898438 -31.539062 6.890625 -30.96875 C 5.878906 -30.394531 5.082031 -29.648438 4.5 -28.734375 C 3.914062 -27.816406 3.734375 -26.707031 3.953125 -25.40625 C 4.222656 -24.195312 4.804688 -23.273438 5.703125 -22.640625 C 6.609375 -22.003906 7.742188 -21.535156 9.109375 -21.234375 C 10.484375 -20.941406 12 -20.710938 13.65625 -20.546875 C 15.070312 -20.441406 16.4375 -20.253906 17.75 -19.984375 C 19.070312 -19.722656 20.257812 -19.316406 21.3125 -18.765625 C 22.375 -18.222656 23.273438 -17.472656 24.015625 -16.515625 C 24.753906 -15.554688 25.253906 -14.28125 25.515625 -12.6875 C 25.804688 -10.832031 25.539062 -9.144531 24.71875 -7.625 C 23.90625 -6.101562 22.695312 -4.847656 21.09375 -3.859375 C 19.5 -2.867188 17.644531 -2.203125 15.53125 -1.859375 C 13.25 -1.492188 10.972656 -1.578125 8.703125 -2.109375 C 6.429688 -2.648438 4.304688 -3.828125 2.328125 -5.640625 Z M 2.328125 -5.640625 "/></g></g></g><g fill="#b0b0b0" fill-opacity="1"><g transform="translate(276.458246, 232.830042)"><g><path d="M 2.328125 -5.640625 C 1.910156 -6.078125 1.671875 -6.539062 1.609375 -7.03125 C 1.554688 -7.519531 1.757812 -7.957031 2.21875 -8.34375 C 2.507812 -8.6875 2.878906 -8.867188 3.328125 -8.890625 C 3.773438 -8.921875 4.21875 -8.785156 4.65625 -8.484375 C 6.039062 -7.179688 7.613281 -6.207031 9.375 -5.5625 C 11.144531 -4.925781 13.144531 -4.785156 15.375 -5.140625 C 16.550781 -5.335938 17.6875 -5.726562 18.78125 -6.3125 C 19.882812 -6.894531 20.75 -7.660156 21.375 -8.609375 C 22 -9.554688 22.210938 -10.660156 22.015625 -11.921875 C 21.796875 -13.234375 21.242188 -14.222656 20.359375 -14.890625 C 19.472656 -15.566406 18.390625 -16.035156 17.109375 -16.296875 C 15.835938 -16.566406 14.5 -16.765625 13.09375 -16.890625 C 11.59375 -17.046875 10.128906 -17.253906 8.703125 -17.515625 C 7.273438 -17.773438 5.984375 -18.191406 4.828125 -18.765625 C 3.679688 -19.347656 2.707031 -20.113281 1.90625 -21.0625 C 1.101562 -22.007812 0.578125 -23.242188 0.328125 -24.765625 C 0.046875 -26.535156 0.28125 -28.171875 1.03125 -29.671875 C 1.789062 -31.171875 2.941406 -32.4375 4.484375 -33.46875 C 6.023438 -34.5 7.84375 -35.1875 9.9375 -35.53125 C 11 -35.695312 12.164062 -35.738281 13.4375 -35.65625 C 14.707031 -35.570312 15.976562 -35.3125 17.25 -34.875 C 18.53125 -34.445312 19.726562 -33.753906 20.84375 -32.796875 C 21.269531 -32.484375 21.519531 -32.082031 21.59375 -31.59375 C 21.675781 -31.113281 21.539062 -30.648438 21.1875 -30.203125 C 20.882812 -29.890625 20.507812 -29.695312 20.0625 -29.625 C 19.625 -29.5625 19.238281 -29.671875 18.90625 -29.953125 C 17.695312 -30.929688 16.351562 -31.601562 14.875 -31.96875 C 13.394531 -32.332031 11.851562 -32.382812 10.25 -32.125 C 9.019531 -31.925781 7.898438 -31.539062 6.890625 -30.96875 C 5.878906 -30.394531 5.082031 -29.648438 4.5 -28.734375 C 3.914062 -27.816406 3.734375 -26.707031 3.953125 -25.40625 C 4.222656 -24.195312 4.804688 -23.273438 5.703125 -22.640625 C 6.609375 -22.003906 7.742188 -21.535156 9.109375 -21.234375 C 10.484375 -20.941406 12 -20.710938 13.65625 -20.546875 C 15.070312 -20.441406 16.4375 -20.253906 17.75 -19.984375 C 19.070312 -19.722656 20.257812 -19.316406 21.3125 -18.765625 C 22.375 -18.222656 23.273438 -17.472656 24.015625 -16.515625 C 24.753906 -15.554688 25.253906 -14.28125 25.515625 -12.6875 C 25.804688 -10.832031 25.539062 -9.144531 24.71875 -7.625 C 23.90625 -6.101562 22.695312 -4.847656 21.09375 -3.859375 C 19.5 -2.867188 17.644531 -2.203125 15.53125 -1.859375 C 13.25 -1.492188 10.972656 -1.578125 8.703125 -2.109375 C 6.429688 -2.648438 4.304688 -3.828125 2.328125 -5.640625 Z M 2.328125 -5.640625 "/></g></g></g></svg>