<?xml version="1.0" encoding="UTF-8" standalone="no"?>
<!-- Created with Inkscape (http://www.inkscape.org/) -->

<svg
   width="370.22095"
   height="274.9982"
   viewBox="0 0 97.954287 72.759942"
   version="1.1"
   id="svg1"
   xmlns="http://www.w3.org/2000/svg"
   xmlns:svg="http://www.w3.org/2000/svg">
  <defs
     id="defs1" />
  <g
     id="layer1"
     transform="translate(-27.119501,-29.765863)">
    <g
       id="rect1"
       transform="translate(2.2583333e-4,2.8333333e-4)">
      <path
         id="path10"
         style="fill:#3b82f6;paint-order:stroke fill markers"
         d="m 30.957284,29.765625 c -2.113957,0 -3.838009,1.721985 -3.838009,3.835942 v 65.088016 c 0,2.113957 1.724052,3.835937 3.838009,3.835937 h 70.378646 c 2.11395,0 3.83594,-1.72198 3.83594,-3.835937 v -9.462471 c -0.10277,0.03 -0.20575,0.05852 -0.30954,0.08423 -0.22509,0.06359 -0.45472,0.09514 -0.68729,0.113172 -0.1085,0.0044 -0.21704,0.0083 -0.32556,0.0124 v 9.252665 c 0,1.403951 -1.10961,2.513541 -2.51355,2.513541 H 30.957284 c -1.403942,0 -2.514059,-1.10959 -2.514059,-2.513541 V 33.601567 c 0,-1.403942 1.110117,-2.513542 2.514059,-2.513542 h 70.378646 c 1.40394,0 2.51355,1.1096 2.51355,2.513542 v 8.980847 c 0.0686,-0.0047 0.1373,-0.0078 0.20618,-0.0078 0.0418,1.9e-5 0.0837,9.29e-4 0.12558,0.0031 0.17763,0.003 0.35557,0.006 0.53278,0.01964 0.15385,0.01279 0.30671,0.03249 0.45785,0.06408 v -9.059912 c 0,-2.113957 -1.72199,-3.835942 -3.83594,-3.835942 z m 73.200696,18.066597 c -10e-4,0.01618 -10e-4,0.0324 -0.002,0.04858 0.001,7.85e-4 0.002,0.0018 0.003,0.0026 -0.001,-0.01704 -8.3e-4,-0.03412 -0.001,-0.05116 z m -0.29765,14.157276 c -0.004,0.0014 -0.007,0.0037 -0.0109,0.0052 v 0.780314 c 0.002,0.01448 0.005,0.02893 0.007,0.04341 -0.002,-0.276345 0.0131,-0.55256 0.004,-0.82889 z m 1.31051,3.003434 c -0.0129,0.01232 -0.0261,0.02336 -0.0398,0.03359 0.0133,0.0062 0.0265,0.01241 0.0398,0.0186 z m -0.0139,19.274276 c 0.006,0.03645 0.009,0.07314 0.015,0.109554 v -0.109037 c -0.005,-3.22e-4 -0.01,2.5e-5 -0.015,-5.17e-4 z" />
      <path
         id="path11"
         style="fill-opacity:0;paint-order:stroke fill markers"
         d="m 30.95625,30.427083 c -1.75895,0 -3.175,1.41605 -3.175,3.175 v 65.0875 c 0,1.758947 1.41605,3.174997 3.175,3.174997 h 70.37917 c 1.75895,0 3.175,-1.41605 3.175,-3.174997 v -9.302791 c -0.11107,0.01718 -0.22276,0.02899 -0.33538,0.03772 -0.45225,0.0183 -0.90494,0.03109 -1.35651,0.06305 -0.32027,0.02712 -0.63948,0.06154 -0.9586,0.09974 -0.44033,0.05271 -0.49356,-0.391798 -0.0532,-0.444418 0.32633,-0.03899 0.65278,-0.07481 0.9803,-0.102319 0.30924,-0.02179 0.61884,-0.03464 0.92862,-0.04651 -0.11966,-0.0085 -0.23933,-0.01896 -0.3576,-0.03927 -0.21192,-0.03413 -0.42302,-0.07046 -0.63562,-0.100252 -0.33164,-0.05002 -0.66396,-0.0975 -0.99735,-0.134359 -0.31332,-0.03034 -0.62741,-0.04699 -0.94206,-0.05529 -0.31348,-0.0083 -0.28609,-0.322626 0.0263,-0.315226 0.31607,0.0074 0.63151,0.02496 0.9462,0.05529 0.33901,0.03732 0.67668,0.08558 1.01389,0.136426 0.0758,0.01062 0.15128,0.02345 0.22686,0.03566 0.002,-0.0048 0.005,-0.0099 0.008,-0.01447 -0.0334,-0.02005 -0.0648,-0.0419 -0.0765,-0.07028 -0.0447,-6.03e-4 -0.0887,-0.0023 -0.26304,-0.0031 -0.31402,-0.0014 -0.31179,-0.318176 10e-4,-0.316776 0.32899,0.0015 0.16416,-9.36e-4 0.49454,0.0057 0.0312,7.25e-4 0.0624,0.0018 0.0935,0.0026 -3.20284,-0.259786 -6.412228,-0.428383 -9.622673,-0.557589 -1.576405,-0.06144 -3.153245,-0.102122 -4.73046,-0.135392 -0.886746,-0.0187 -0.867628,-0.914779 0.01912,-0.896069 1.582929,0.0334 3.165398,0.07423 4.747514,0.135909 3.33715,0.13434 6.673239,0.306742 10.001969,0.583943 -0.0425,-0.05322 -0.07,-0.11061 -0.0816,-0.168981 -0.1025,-0.02585 -0.20482,-0.0526 -0.30696,-0.07906 -0.75126,-0.194688 -0.6744,-0.882833 -0.0661,-0.902788 0.073,-0.0024 0.15368,0.0058 0.24133,0.0248 0.0385,-0.0048 0.0702,-0.01624 0.11317,-0.01654 0.0135,-9.2e-5 0.0279,10e-4 0.0419,10e-4 -0.0469,-0.615428 -0.0653,-1.233709 -0.0806,-1.850016 -0.002,-0.145601 -0.008,-0.291084 -0.0103,-0.436666 -0.16967,-1.165801 -0.22779,-2.344764 -0.25166,-3.521749 -0.025,-0.607343 0.0202,-1.209918 0.0873,-1.810742 -0.0327,0.06487 -0.0653,0.130022 -0.0982,0.19482 -0.40087,0.791187 -1.20051,0.385934 -0.79943,-0.405143 0.25974,-0.512293 0.51393,-1.02709 0.76171,-1.545126 -0.076,-0.05562 -0.14996,-0.115365 -0.2372,-0.148828 -0.22005,-0.08439 -0.45425,-0.127423 -0.68471,-0.176733 -0.90029,-0.192616 -1.93794,-0.206291 -2.652549,-0.884701 -0.154853,-0.147008 -0.208988,-0.372011 -0.313676,-0.558105 -0.03731,-0.166722 -0.07971,-0.332488 -0.112138,-0.500228 -0.006,-0.0308 -0.07778,-0.563527 -0.119373,-0.656807 -0.03258,-0.07307 -0.08477,-0.137503 -0.142627,-0.192753 -0.106108,-0.101324 -0.289848,-0.137494 -0.345198,-0.273369 -0.09191,-0.225637 -0.04214,-0.48538 -0.06305,-0.728121 0.104712,-0.09099 0.194883,-0.202081 0.314193,-0.272851 0.19086,-0.11321 1.386748,-0.591918 1.468648,-0.624768 0.31668,-0.127055 0.63457,-0.249696 0.95188,-0.375171 0.18042,-0.07134 0.35368,-0.165722 0.5333,-0.239779 -0.085,-0.310917 0.21602,-0.414006 0.59583,-0.548804 0.0501,-0.01286 0.12468,-0.03068 0.185,-0.04651 0.0776,-0.189352 0.23187,-0.282742 0.38913,-0.267684 0.0935,0.009 0.18742,0.05757 0.26716,0.14521 0.0501,-0.0052 0.0998,-0.01972 0.14883,-0.02119 0.025,-7.47e-4 0.0494,0.0012 0.0739,0.0015 -2.53846,-1.718203 -5.076391,-3.437059 -7.615045,-5.154724 -6.259484,-4.2708 -12.551917,-8.503231 -18.693949,-12.941845 -1.524971,-1.102038 -0.957169,-2.431489 0.283186,-2.411739 0.413452,0.0066 0.901552,0.163465 1.411801,0.528133 4.198813,3.000839 8.455711,5.919953 12.718603,8.829952 -0.101958,-0.65787 0.447185,-1.298501 1.567346,-1.258838 0.137504,0.0049 0.283181,0.01991 0.4377,0.04651 3.132713,0.539222 6.276062,1.025601 9.419068,1.50275 0.0505,-0.546203 0.10757,-1.091624 0.17518,-1.636076 0.0645,-0.546651 0.15164,-1.089854 0.22324,-1.635559 0.0617,-0.49123 0.10846,-0.984373 0.14056,-1.478462 0.0182,-0.541746 0.008,-1.08306 -0.0124,-1.624707 -0.0181,-0.464171 -0.0368,-0.929383 -0.10852,-1.389063 -0.0495,-0.361673 -0.0601,-0.724306 -0.0739,-1.088822 -0.0247,-0.42681 -0.0612,-0.85298 -0.0682,-1.280542 -0.0101,-0.378428 -0.0255,-0.757036 -0.0393,-1.135332 -5.7e-4,-0.216215 0.0123,-0.432142 0.031,-0.647505 -0.008,6.32e-4 -0.0147,0.0014 -0.0222,0.0021 -0.40973,0.03413 -0.64556,-0.139729 -0.69246,-0.343132 -0.0435,0.0092 -0.0873,0.01416 -0.13074,0.02325 -0.28808,0.05653 -0.15096,0.02678 -0.41342,0.08682 -0.8646,0.197802 -1.06343,-0.677252 -0.19843,-0.873332 0.10925,-0.02476 0.13202,-0.03011 0.16381,-0.03721 -0.90297,0.03407 -1.80612,0.06441 -2.708881,0.101803 -2.23237,0.09758 -4.464945,0.186652 -6.698299,0.258382 -1.258944,0.0395 -2.517348,-0.03873 -3.774963,-0.0863 -0.858452,-0.04119 -1.718904,-0.04353 -2.577104,-0.08888 -0.67517,-0.06665 -1.286027,-0.376847 -1.897042,-0.648539 -0.296849,-0.135089 -0.599689,-0.250038 -0.912606,-0.333313 -0.04033,0.298325 -0.418588,0.465549 -0.866613,0.133325 -0.182505,-0.135333 -0.367059,-0.264885 -0.471289,-0.474907 0.03038,-0.163241 0.0078,-0.346148 0.09095,-0.489892 0.08144,-0.140836 0.284135,-0.178478 0.497644,-0.178284 0.213509,1.95e-4 0.43808,0.0384 0.56224,0.04961 0.507986,0.0948 0.99396,0.259032 1.463993,0.474906 0.511013,0.227226 1.020475,0.495218 1.580782,0.572058 0.853516,0.046 1.708863,0.04637 2.562634,0.08837 1.236749,0.04679 2.474377,0.124322 3.712435,0.0863 2.230582,-0.07163 4.460432,-0.160415 6.690031,-0.257865 1.479328,-0.06126 2.959128,-0.116198 4.439008,-0.166915 -0.008,-0.0078 -0.0152,-0.0165 -0.0202,-0.02584 -0.0822,0.0044 -0.16446,0.0077 -0.2465,0.01447 -0.13427,0.01091 -0.18652,-0.06755 -0.1571,-0.134875 -0.14093,-0.01364 -0.28141,-0.03202 -0.42271,-0.03979 -0.29513,-0.02485 -0.58933,-0.01037 -0.88418,0.0072 -0.20385,0.0127 -0.10319,0.0067 -0.30179,0.0186 -0.84227,0.05056 -0.93119,-0.756108 -0.1757,-0.880566 -0.077,-0.243226 0.10311,-0.513107 0.5581,-0.517798 0.0259,-2.68e-4 0.0524,-5.68e-4 0.0801,0.0016 0.4651,0.02552 0.93078,0.03547 1.3963,0.04961 -0.009,-0.02476 -0.003,-0.05038 0.0103,-0.07338 h -0.14159 c -0.24665,0 -0.3959,-0.09813 -0.44855,-0.217041 -0.0463,-0.0072 -0.0928,-0.0139 -0.13901,-0.0217 -0.50889,-0.01883 -1.01811,-0.03187 -1.52704,-0.01809 -0.31346,0.0085 -0.34054,-0.306443 -0.0263,-0.315743 0.0876,-0.0026 0.17535,-0.0035 0.26303,-0.0047 -0.10855,-0.181102 0.0206,-0.418805 0.35657,-0.432531 0.0347,-0.0014 0.0716,-5.55e-4 0.11058,0.0031 0.14656,0.01373 0.29132,0.0416 0.43667,0.06511 0.0198,-0.138454 0.15877,-0.275334 0.42891,-0.307475 0.13278,-0.0158 0.26497,-0.03476 0.3974,-0.05323 0.15486,-0.01707 0.30728,-0.04669 0.46147,-0.0677 0.12488,-0.01416 0.24935,-0.0228 0.37465,-0.02274 0.0418,1.9e-5 0.0837,9.29e-4 0.12557,0.0031 0.10878,0.0018 0.21783,0.004 0.3266,0.0083 v -8.983948 c 0,-1.75895 -1.41605,-3.175 -3.175,-3.175 z m 73.20173,17.405139 c -10e-4,0.01618 -10e-4,0.0324 -0.002,0.04858 0.001,7.85e-4 0.002,0.0018 0.003,0.0026 -0.001,-0.01704 -8.7e-4,-0.03412 -0.001,-0.05116 z M 93.558114,60.625757 c 0.52931,0.360843 1.057181,0.723844 1.586466,1.084688 0.215387,-0.204943 0.536112,-0.340939 0.946196,-0.3545 0.288825,-0.0096 0.621232,0.04142 0.991154,0.171049 1.379605,0.483465 2.762026,0.966855 4.07365,1.619539 0.66803,0.322573 1.33956,0.637325 2.01073,0.952914 -0.0253,-0.160557 -0.0519,-0.320894 -0.0822,-0.480591 -0.0925,-0.508183 -0.18516,-1.019114 -0.19792,-1.536341 -0.087,-0.006 -0.16144,0.0033 -0.25477,-0.01085 -3.027374,-0.459725 -6.055652,-0.927438 -9.073346,-1.445906 z m 10.302216,1.359607 c -0.0225,0.0081 -0.0532,0.0086 -0.0765,0.01602 0.003,0.274119 0.0311,0.54629 0.0723,0.817005 -10e-4,-0.277723 0.0138,-0.555317 0.004,-0.833024 z m -1.89549,4.354773 c 0.381,0.257897 0.76206,0.515714 1.14308,0.773596 -0.0238,-0.08107 -0.0254,-0.161789 0.01,-0.234094 -0.38455,-0.179284 -0.76928,-0.358177 -1.1529,-0.539502 z m 0.709,5.425508 c -0.0615,0.0435 -0.1223,0.08815 -0.18811,0.125057 -0.27172,0.152422 -0.57949,0.230093 -0.86919,0.344682 -0.57612,0.227877 -1.23827,0.482836 -1.811262,0.726571 -0.09136,0.03886 -0.161015,0.0656 -0.222209,0.08733 0.07674,0.07514 0.150603,0.152924 0.205155,0.244429 0.240236,0.403021 0.226756,0.639906 0.316256,1.082622 0.0307,0.15212 0.0685,0.302356 0.10284,0.453719 0.068,0.0956 0.10772,0.219984 0.20412,0.286804 0.18264,0.126608 1.12441,0.304863 1.18701,0.317293 0.42982,0.08531 1.18186,0.18239 1.60817,0.344165 0.007,0.0025 0.012,0.0077 0.0186,0.01034 -0.003,-0.02531 -0.005,-0.05067 -0.008,-0.07596 -0.13361,-1.321945 -0.34001,-2.634385 -0.54312,-3.947046 z" />
    </g>
    <text
       xml:space="preserve"
       style="font-style:normal;font-variant:normal;font-weight:normal;font-stretch:normal;font-size:19.7556px;line-height:0.7;font-family:'Courier New';-inkscape-font-specification:'Courier New, Normal';font-variant-ligatures:normal;font-variant-caps:normal;font-variant-numeric:normal;font-variant-east-asian:normal;text-align:center;writing-mode:lr-tb;direction:ltr;text-anchor:middle;fill:#b0b0b0;fill-opacity:1;stroke:#3b82f6;stroke-width:0;stroke-dasharray:none;paint-order:stroke fill markers"
       x="66.558868"
       y="79.612511"
       id="text73"
       transform="rotate(-10.561472)"><tspan
         id="tspan73"
         style="font-style:normal;font-variant:normal;font-weight:bold;font-stretch:normal;font-size:25.4px;line-height:0.7;font-family:'Courier New';-inkscape-font-specification:'Courier New, Bold';font-variant-ligatures:normal;font-variant-caps:normal;font-variant-numeric:normal;font-variant-east-asian:normal;text-align:center;text-anchor:middle;stroke-width:0"
         x="66.558868"
         y="79.612511">WebDev</tspan><tspan
         style="font-style:normal;font-variant:normal;font-weight:bold;font-stretch:normal;font-size:25.4px;line-height:0.7;font-family:'Courier New';-inkscape-font-specification:'Courier New, Bold';font-variant-ligatures:normal;font-variant-caps:normal;font-variant-numeric:normal;font-variant-east-asian:normal;text-align:center;text-anchor:middle;stroke-width:0"
         x="66.558868"
         y="97.392509"
         id="tspan74">Ross</tspan></text>
  </g>
</svg>
